<svg width="21" height="20" viewBox="0 0 21 20" fill="none" xmlns="http://www.w3.org/2000/svg">
<path fill-rule="evenodd" clip-rule="evenodd" d="M1.17183 0.0480849C1.08499 0.0711517 0.92735 0.166271 0.821577 0.259389C0.485792 0.555046 0.500088 0.364808 0.500088 4.53996C0.500088 7.21405 0.513703 8.27011 0.550081 8.41451C0.618711 8.68719 0.91765 8.9862 1.19025 9.05485C1.33462 9.09124 2.39039 9.10486 5.06378 9.10486C9.23586 9.10486 9.0478 9.11894 9.34206 8.78452C9.44094 8.6722 9.52982 8.51563 9.55773 8.40472C9.62453 8.13949 9.62453 0.962631 9.55773 0.697405C9.52982 0.586496 9.44094 0.429923 9.34206 0.31761C9.04721 -0.0174983 9.2405 -0.00332616 5.03429 0.00165322C2.74711 0.00437698 1.26935 0.022124 1.17183 0.0480849ZM12.064 0.0480849C11.9772 0.0711517 11.8195 0.166271 11.7137 0.259389C11.378 0.555046 11.3923 0.364808 11.3923 4.53996C11.3923 7.21405 11.4059 8.27011 11.4422 8.41451C11.5109 8.68719 11.8098 8.9862 12.0824 9.05485C12.2268 9.09124 13.2826 9.10486 15.9559 9.10486C20.128 9.10486 19.94 9.11894 20.2342 8.78452C20.3331 8.6722 20.422 8.51563 20.4499 8.40472C20.5167 8.13949 20.5167 0.962631 20.4499 0.697405C20.422 0.586496 20.3331 0.429923 20.2342 0.31761C19.9394 -0.0174983 20.1327 -0.00332616 15.9265 0.00165322C13.6393 0.00437698 12.1615 0.022124 12.064 0.0480849ZM7.77572 4.55106V7.27483H5.05267H2.32963V4.55106V1.8273H5.05267H7.77572V4.55106ZM18.6679 4.55106V7.27483H15.9448H13.2218V4.55106V1.8273H15.9448H18.6679V4.55106ZM1.17183 10.9431C1.08499 10.9662 0.92735 11.0613 0.821577 11.1544C0.485792 11.4501 0.500088 11.2599 0.500088 15.435C0.500088 18.1091 0.513703 19.1652 0.550081 19.3096C0.618711 19.5822 0.91765 19.8813 1.19025 19.9499C1.33462 19.9863 2.39039 19.9999 5.06378 19.9999C9.23586 19.9999 9.0478 20.014 9.34206 19.6796C9.44094 19.5673 9.52982 19.4107 9.55773 19.2998C9.62453 19.0346 9.62453 11.8577 9.55773 11.5925C9.52982 11.4816 9.44094 11.325 9.34206 11.2127C9.04721 10.8776 9.2405 10.8917 5.03429 10.8967C2.74711 10.8994 1.26935 10.9172 1.17183 10.9431ZM15.413 10.9407C14.7139 11.0291 13.9732 11.3077 13.3868 11.7031C13.011 11.9564 12.4988 12.4629 12.2408 12.8362C11.1375 14.4326 11.1388 16.4614 12.2439 18.0605C12.4973 18.4272 13.0472 18.9697 13.4048 19.206C14.7472 20.0927 16.4283 20.2265 17.8372 19.5589C18.8501 19.079 19.5769 18.3537 20.0508 17.3499C20.5044 16.3894 20.5992 15.3316 20.3264 14.2758C20.2146 13.8428 19.844 13.0803 19.5716 12.7224C18.8031 11.7129 17.6772 11.0805 16.3916 10.936C15.957 10.8872 15.8317 10.8878 15.413 10.9407ZM7.77572 15.4461V18.1699H5.05267H2.32963V15.4461V12.7224H5.05267H7.77572V15.4461ZM16.5192 12.7862C17.2902 12.9475 18.006 13.5015 18.3615 14.2119C18.9035 15.2953 18.7109 16.5019 17.8579 17.3654C16.8017 18.4348 15.0976 18.4341 14.0276 17.3639C12.9582 16.2941 12.9568 14.5958 14.0243 13.5333C14.6965 12.8644 15.6001 12.5938 16.5192 12.7862Z" fill="#A7B3C3"/>
</svg>
