<svg width="17" height="16" viewBox="0 0 17 16" fill="none" xmlns="http://www.w3.org/2000/svg">
<path fill-rule="evenodd" clip-rule="evenodd" d="M7.83601 0.0103343C7.4482 0.050809 6.8991 0.147004 6.52066 0.240729C3.81401 0.911229 1.58003 3.0653 0.807043 5.75006C0.565179 6.58997 0.498556 7.08315 0.500024 8.02251C0.50142 8.91385 0.559308 9.35381 0.781518 10.1616C1.51638 12.8332 3.66799 14.984 6.34055 15.7186C7.14132 15.9387 7.58799 15.9974 8.48041 15.9999C9.3463 16.0023 9.70834 15.9601 10.4816 15.7667C12.7039 15.2108 14.6382 13.6489 15.6848 11.5654C16.0059 10.9261 16.2978 9.98978 16.4324 9.16769C16.5216 8.62215 16.5227 7.43268 16.4345 6.85944C16.1647 5.10615 15.3999 3.59033 14.1576 2.34674C12.9285 1.11636 11.3964 0.340109 9.67971 0.0779354C9.31859 0.0227881 8.13322 -0.020657 7.83601 0.0103343ZM9.59021 1.22107C10.3147 1.35001 10.8332 1.51474 11.4645 1.81642C14.1148 3.08305 15.6645 5.88791 15.3186 8.79214C15.0353 11.1717 13.5803 13.1935 11.416 14.2154C9.5456 15.0986 7.40477 15.0906 5.53215 14.1934C4.09762 13.5061 2.99191 12.4001 2.30666 10.9673C2.00516 10.3368 1.84477 9.83117 1.70744 9.07822C1.62067 8.60247 1.62067 7.40677 1.70744 6.93102C1.84477 6.17807 2.00516 5.6724 2.30666 5.04194C2.74166 4.13239 3.3199 3.38384 4.07703 2.75024C5.11992 1.87747 6.36239 1.34285 7.74652 1.17125C8.12939 1.12377 9.20715 1.1529 9.59021 1.22107ZM8.00313 4.05137C7.35601 4.1918 6.74559 4.66822 6.46173 5.25441C6.35018 5.48484 6.31452 5.60129 6.31452 5.73542C6.31452 6.07693 6.58109 6.31162 6.93082 6.27802C7.16924 6.25511 7.276 6.16765 7.42432 5.87363C7.57417 5.57656 7.77179 5.36796 8.01501 5.25001C8.26977 5.12647 8.73026 5.12465 8.96371 5.24625C9.23371 5.38686 9.37598 5.52167 9.50314 5.75736C9.61441 5.96363 9.62461 6.00837 9.62389 6.28686C9.62321 6.54688 9.60904 6.61813 9.52612 6.77774C9.3917 7.03641 9.23275 7.18342 8.89079 7.3654C8.22247 7.72101 7.89566 8.30197 7.93067 9.07221C7.94467 9.38065 7.99228 9.48322 8.1899 9.63069C8.32851 9.73415 8.66811 9.73415 8.80673 9.63069C9.0067 9.48146 9.04712 9.38874 9.07111 9.02454C9.09914 8.59864 9.1378 8.54103 9.5393 8.32699C10.4678 7.83195 10.9536 6.80748 10.7323 5.81079C10.4571 4.57081 9.23629 3.78383 8.00313 4.05137ZM8.26382 10.3433C8.11744 10.4097 7.96926 10.5919 7.94155 10.7395C7.92913 10.8058 7.92448 11.0376 7.93121 11.2549C7.94144 11.586 7.95534 11.6658 8.01723 11.7486C8.1576 11.9363 8.27199 11.9948 8.49831 11.9948C8.72471 11.9948 8.83912 11.9362 8.97939 11.7484C9.04562 11.6598 9.05321 11.5987 9.05321 11.1538C9.05321 10.6148 9.03495 10.557 8.81203 10.3906C8.69353 10.3022 8.40874 10.2776 8.26382 10.3433Z" fill="#A7B3C3"/>
</svg>
