<svg width="21" height="20" viewBox="0 0 21 20" fill="none" xmlns="http://www.w3.org/2000/svg">
<path d="M0.5 18H20.5V20H0.5V18ZM2.5 10H4.5V17H2.5V10ZM7.5 10H9.5V17H7.5V10ZM11.5 10H13.5V17H11.5V10ZM16.5 10H18.5V17H16.5V10ZM0.5 5L10.5 0L20.5 5V9H0.5V5ZM2.5 6.236V7H18.5V6.236L10.5 2.236L2.5 6.236ZM10.5 6C10.2348 6 9.98043 5.89464 9.79289 5.70711C9.60536 5.51957 9.5 5.26522 9.5 5C9.5 4.73478 9.60536 4.48043 9.79289 4.29289C9.98043 4.10536 10.2348 4 10.5 4C10.7652 4 11.0196 4.10536 11.2071 4.29289C11.3946 4.48043 11.5 4.73478 11.5 5C11.5 5.26522 11.3946 5.51957 11.2071 5.70711C11.0196 5.89464 10.7652 6 10.5 6Z" fill="#A7B3C3"/>
</svg>
