<svg width="21" height="17" viewBox="0 0 21 17" fill="none" xmlns="http://www.w3.org/2000/svg">
<path fill-rule="evenodd" clip-rule="evenodd" d="M6.50486 0.777955C4.30271 1.43043 3.88297 1.57627 3.77344 1.7265C3.67885 1.85641 3.48016 2.87322 3.03434 5.50858C2.69898 7.49103 2.40841 9.18599 2.38855 9.27523C2.35411 9.4303 2.32082 9.43744 1.63395 9.43744C0.935001 9.43744 0.909638 9.4432 0.706519 9.64815C0.396519 9.96095 0.441029 10.4023 0.80297 10.6042C0.890491 10.653 1.22964 10.7105 1.55664 10.732L2.15121 10.7711L2.94554 12.55C3.76073 14.3757 3.83196 14.4837 4.22098 14.4837C4.33879 14.4837 4.35558 14.5135 4.31235 14.6459C4.22512 14.9129 4.26491 15.5228 4.38916 15.8237C4.53355 16.1734 4.94643 16.6127 5.30723 16.8006C6.58545 17.4661 8.12574 16.3718 7.97392 14.906L7.93019 14.4837H10.5H13.0698L13.0261 14.906C12.9636 15.5088 13.1395 16.0004 13.5748 16.4397C14.4979 17.371 16.0455 17.0764 16.5874 15.8662C16.731 15.5457 16.7813 14.9326 16.6876 14.6459C16.6444 14.5135 16.6612 14.4837 16.779 14.4837C17.168 14.4837 17.2393 14.3757 18.0545 12.55L18.8488 10.7711L19.4434 10.732C19.7704 10.7105 20.1095 10.653 20.197 10.6042C20.559 10.4023 20.6035 9.96095 20.2935 9.64815C20.0907 9.44356 20.064 9.43744 19.376 9.43744H18.6672L17.361 5.9812C16.5308 3.78443 15.9978 2.47097 15.8984 2.37675C15.7508 2.23682 15.658 2.2286 14.2463 2.22954L12.7505 2.23055L12.2948 2.62149L11.839 3.01235L11.4713 2.53037C11.269 2.26522 10.8039 1.65088 10.4378 1.16507C9.72096 0.214147 9.49398 -0.00990616 9.25793 0.00033048C9.17484 0.00393493 7.93591 0.353855 6.50486 0.777955ZM10.0356 2.71023C11.3247 4.43755 11.4154 4.53538 11.7281 4.53538C11.9872 4.53538 12.1614 4.42328 12.8758 3.79647L13.2661 3.45404H14.1616C14.9481 3.45404 15.0632 3.4694 15.1065 3.5802C15.3883 4.30116 17.2431 9.21598 17.2693 9.31128C17.3021 9.4308 16.9439 9.43744 10.4669 9.43744H3.62991L3.66985 9.23919C3.69178 9.13019 3.95377 7.59736 4.25205 5.83298C4.57863 3.90085 4.82783 2.61168 4.87863 2.59143C5.03645 2.52857 8.89213 1.38091 8.96393 1.37543C9.00322 1.3724 9.48548 1.97305 10.0356 2.71023ZM6.94904 5.85446C6.22673 6.58328 6.14185 6.69553 6.14185 6.92218C6.14185 7.34418 6.54644 7.64919 6.93932 7.5234C7.02991 7.49435 7.30555 7.27541 7.55175 7.03687L7.99942 6.60311L8.45353 7.04307C8.95457 7.52852 9.18041 7.62447 9.50391 7.4893C9.76097 7.38189 9.85699 7.22286 9.85699 6.90451C9.85699 6.70043 9.74911 6.56 9.04981 5.85446C8.33736 5.13559 8.21411 5.04 7.99942 5.04C7.78473 5.04 7.66149 5.13559 6.94904 5.85446ZM13.2094 7.12503C12.6345 7.70513 13.4422 8.5591 14.0346 7.99753C14.3344 7.71335 14.2769 7.20376 13.9242 7.01978C13.6244 6.86335 13.4422 6.89017 13.2094 7.12503ZM16.943 11.9606L16.3975 13.1861H10.5H4.60249L4.05701 11.9606L3.51145 10.735H10.5H17.4885L16.943 11.9606ZM6.53801 14.6606C6.78943 14.9143 6.78314 15.355 6.52515 15.5597C6.20129 15.8168 5.77476 15.7501 5.60337 15.4156C5.44833 15.1131 5.47491 14.9292 5.70768 14.6944C5.97417 14.4255 6.29224 14.4126 6.53801 14.6606ZM15.2923 14.6944C15.5251 14.9292 15.5517 15.1131 15.3966 15.4156C15.2252 15.7501 14.7987 15.8168 14.4748 15.5597C14.3279 15.4432 14.2866 15.3475 14.2866 15.124C14.2866 14.5292 14.8782 14.2765 15.2923 14.6944Z" fill="#A7B3C3"/>
</svg>
