<svg width="21" height="20" viewBox="0 0 21 20" fill="none" xmlns="http://www.w3.org/2000/svg">
<path fill-rule="evenodd" clip-rule="evenodd" d="M7.35197 0.504101C7.09563 0.530572 6.985 0.546037 6.82514 0.577712C5.66562 0.807444 4.64452 1.53045 4.00308 2.57594C3.74357 2.9989 3.5443 3.51487 3.44636 4.01736C3.3827 4.34401 3.36798 4.50612 3.36798 4.88043C3.36798 5.24421 3.38234 5.40932 3.44097 5.7193C3.66499 6.90387 4.37252 7.95174 5.38987 8.60563C5.78823 8.86169 6.28831 9.06808 6.75437 9.16879C6.95438 9.21202 7.22852 9.25085 7.33366 9.25085C7.47231 9.25085 7.38949 9.26789 7.18539 9.28137C5.18389 9.41343 3.32773 10.4074 2.06651 12.0225C1.10676 13.2515 0.569447 14.7329 0.509782 16.3144L0.5 16.5739H1.21405H1.92809L1.93789 16.3396C2.01776 14.4271 2.97133 12.7085 4.52758 11.6722C5.29833 11.159 6.10679 10.8681 7.08064 10.7535C7.32194 10.7251 8.00434 10.7298 8.25879 10.7616C9.04448 10.8597 9.73398 11.0898 10.44 11.4895L10.5006 11.5238L10.5007 14.8362C10.5008 17.6825 10.5038 18.1659 10.5218 18.2711C10.6274 18.8883 11.0958 19.3677 11.6987 19.4758C11.879 19.5081 19.1192 19.5081 19.2994 19.4758C19.9023 19.3677 20.3707 18.8883 20.4763 18.2711C20.5079 18.0867 20.5079 10.676 20.4763 10.4915C20.3685 9.86145 19.8755 9.36996 19.2617 9.28069C19.1785 9.26861 18.145 9.2653 15.4348 9.26846L11.7218 9.27277L11.6005 9.30741C11.3627 9.37527 11.1648 9.49122 10.9887 9.66583C10.9096 9.74432 10.7696 9.9173 10.736 9.97811C10.7349 9.98015 10.6413 9.93977 10.5282 9.88836C9.76979 9.54397 8.94232 9.33676 8.10406 9.28138C7.89993 9.26789 7.81716 9.25085 7.95578 9.25085C7.99597 9.25085 8.10395 9.24078 8.19574 9.22845C9.11854 9.10464 9.95596 8.68734 10.6275 8.01669C11.3438 7.30129 11.7801 6.39847 11.903 5.3774C11.9269 5.17858 11.9269 4.58227 11.903 4.38346C11.7687 3.26742 11.2469 2.27186 10.4136 1.54169C9.7898 0.995036 9.03074 0.648793 8.19994 0.531888C8.04555 0.510167 7.47444 0.491443 7.35197 0.504101ZM7.97318 1.97829C8.40098 2.03119 8.8325 2.18477 9.1677 2.40341C10.0819 2.99971 10.5921 4.06645 10.4862 5.16025C10.3504 6.56294 9.28854 7.64984 7.91811 7.78879C6.61206 7.92122 5.37223 7.10915 4.94786 5.84332C4.47568 4.43492 5.09368 2.8989 6.39311 2.25113C6.87179 2.01251 7.44687 1.9132 7.97318 1.97829ZM19.0692 11.458V12.1888H15.4991H11.9289V11.458V10.7271H15.4991H19.0692V11.458ZM13.357 14.3813V15.1122H15.4991H17.6412V14.3813V13.6505H18.3552H19.0692V15.843V18.0355H15.4991H11.9289V15.843V13.6505H12.6429H13.357V14.3813Z" fill="#A7B3C3"/>
</svg>
