<svg width="20" height="21" viewBox="0 0 20 21" fill="none" xmlns="http://www.w3.org/2000/svg">
<path fill-rule="evenodd" clip-rule="evenodd" d="M9.62461 0.954361C9.00347 1.4761 7.13975 3.22642 6.91278 3.50112C6.77214 3.67139 6.76636 3.69623 6.83807 3.82288C6.88082 3.89832 8.10043 5.06301 9.5484 6.41106L12.181 8.86206L11.4234 9.59333C11.0047 9.9975 10.6134 10.4247 10.5485 10.5483C10.3219 10.9806 10.5453 11.6077 11.0169 11.8626C11.2209 11.9729 11.361 11.9966 12.0855 12.0434C13.4548 12.132 15.7143 12.2002 17.2755 12.2003C18.6776 12.2003 18.7503 12.1955 18.9562 12.0886C19.0747 12.0272 19.2406 11.8849 19.3251 11.7725C19.4697 11.5802 19.4799 11.5298 19.4979 10.922C19.5205 10.161 19.355 5.46539 19.2867 4.92666C19.2608 4.72232 19.1921 4.48015 19.1341 4.3885C18.8575 3.95123 18.156 3.76089 17.6517 3.98627C17.5045 4.05206 17.0779 4.38491 16.6283 4.78482L15.8572 5.47057L13.5545 3.33994C11.0417 1.01492 10.4475 0.5 10.2774 0.5C10.2144 0.5 9.92924 0.698443 9.62461 0.954361ZM12.8579 3.72076C14.2675 5.01236 15.5134 6.13425 15.6267 6.2139C15.7724 6.31638 15.867 6.3485 15.9509 6.32392C16.016 6.30483 16.4935 5.91036 17.0121 5.44732C17.8436 4.70482 17.9767 4.60536 18.1385 4.60536C18.3681 4.60536 18.4913 4.72637 18.5319 4.99158C18.575 5.27279 18.7283 9.64829 18.7283 10.5954C18.7283 11.1509 18.7089 11.381 18.6588 11.4178C18.6207 11.4459 18.4717 11.4846 18.3279 11.5038C17.89 11.5623 11.7045 11.3575 11.4749 11.2769C11.3055 11.2174 11.2049 11.0453 11.2477 10.8882C11.266 10.8209 11.6656 10.3991 12.1357 9.95075C12.6058 9.50239 13.0197 9.08534 13.0553 9.02386C13.0909 8.96239 13.1026 8.86104 13.0812 8.79858C13.0598 8.73618 11.8399 7.57015 10.3703 6.20748L7.69825 3.72989L8.97423 2.55114C9.67598 1.90285 10.2603 1.37239 10.2726 1.37239C10.2849 1.37239 11.4482 2.42916 12.8579 3.72076ZM1.29913 8.81664C1.03063 8.88875 0.681983 9.19803 0.573419 9.46052C0.482087 9.68123 0.480252 9.83211 0.544235 11.859C0.665529 15.7009 0.700605 16.2364 0.850916 16.5394C1.03981 16.9204 1.41403 17.1281 1.90721 17.1256C2.30328 17.1236 2.5671 16.9633 3.37213 16.2352L4.13636 15.5441L6.69343 17.89C8.09982 19.1802 9.34406 20.3009 9.4584 20.3804C9.61944 20.4925 9.70055 20.5171 9.81828 20.4898C9.97393 20.4538 12.9532 17.7503 13.14 17.4756C13.2017 17.3849 13.2204 17.2962 13.1939 17.219C13.1717 17.1542 11.9525 15.9875 10.4846 14.6264L7.81571 12.1517L8.5731 11.4329C8.98968 11.0375 9.3813 10.6222 9.44339 10.5099C9.72573 9.99894 9.43222 9.26875 8.865 9.07087C8.62902 8.98856 7.52809 8.92764 4.68469 8.83969C1.89704 8.75342 1.54366 8.75101 1.29913 8.81664ZM5.49828 9.58337C7.16454 9.639 8.54597 9.68483 8.5681 9.68513C8.62891 9.68606 8.778 9.97441 8.778 10.091C8.778 10.1535 8.42857 10.5297 7.8818 11.0558C7.38896 11.53 6.96003 11.9692 6.92879 12.0318C6.88199 12.1253 6.90028 12.18 7.03169 12.3397C7.11963 12.4465 8.34141 13.603 9.74685 14.9098L12.3021 17.2857L11.0146 18.4743L9.72706 19.6629L7.04208 17.1962C5.56537 15.8394 4.29996 14.7127 4.23014 14.6922C4.05153 14.6399 3.96054 14.7051 2.94499 15.6126C2.19493 16.2829 2.02822 16.4083 1.88647 16.4083C1.64222 16.4083 1.51053 16.2585 1.47301 15.9378C1.42587 15.5347 1.26222 10.3875 1.28328 9.96928C1.31191 9.40151 0.975601 9.4323 5.49828 9.58337Z" fill="#A7B3C3" stroke="#383838" stroke-width="0.2"/>
</svg>
