<svg width="21" height="18" viewBox="0 0 21 18" fill="none" xmlns="http://www.w3.org/2000/svg">
<path fill-rule="evenodd" clip-rule="evenodd" d="M7.09721 0.0419009C6.09911 0.143564 5.16496 0.413784 4.20295 0.879128C3.22795 1.35079 2.41674 1.95069 1.76931 2.67881C-0.330856 5.0407 -0.583316 8.2793 1.12959 10.8853L1.30504 11.1523L0.693258 13.0258C0.356782 14.0562 0.0814724 14.9533 0.0814724 15.0193C0.0813903 15.3044 0.389601 15.5995 0.687433 15.5995C0.822893 15.5995 1.81435 15.1326 3.79272 14.1373C4.58275 13.7398 4.61787 13.7264 4.73893 13.7767C5.05982 13.91 5.0631 13.9082 4.92021 13.6726C4.18523 12.4609 3.77081 10.9808 3.77381 9.57812C3.78049 6.46194 5.65183 3.65511 8.71556 2.16594C9.69672 1.68899 11.0321 1.31959 12.0282 1.24953C12.2257 1.23565 12.3872 1.20908 12.3872 1.19052C12.3872 1.1281 11.1402 0.560937 10.6847 0.416145C9.56048 0.0589047 8.26118 -0.0766456 7.09721 0.0419009ZM12.1021 2.44244C11.104 2.5441 10.1698 2.81432 9.20784 3.27967C7.9199 3.90272 6.95626 4.71727 6.18715 5.833C4.61459 8.11435 4.6145 11.0811 6.18706 13.3632C6.95265 14.4743 7.92569 15.2968 9.20784 15.9167C10.2228 16.4074 11.1148 16.6563 12.2436 16.7638C13.4509 16.8787 14.9614 16.6744 16.0793 16.2449L16.387 16.1267L17.3305 16.5986C19.4167 17.6418 20.1763 18 20.3032 18C20.6116 18 20.9212 17.7043 20.9194 17.4115C20.919 17.3501 20.6437 16.4577 20.3075 15.4283L19.6964 13.5568L19.9217 13.2078C21.5844 10.6323 21.3051 7.40639 19.2165 5.06511C18.1242 3.84051 16.4591 2.91226 14.7565 2.57859C13.858 2.40251 12.951 2.35598 12.1021 2.44244ZM10.7883 9.07852C10.9703 9.1691 11.1154 9.3996 11.1154 9.59812C11.1154 9.90391 10.8122 10.1983 10.497 10.1983C10.3062 10.1983 10.0528 10.0427 9.96255 9.8701C9.81105 9.58048 9.90614 9.26429 10.1962 9.09301C10.3926 8.97706 10.5754 8.97258 10.7883 9.07852ZM13.2497 9.07852C13.4318 9.1691 13.5769 9.3996 13.5769 9.59812C13.5769 9.90391 13.2736 10.1983 12.9585 10.1983C12.7677 10.1983 12.5142 10.0427 12.424 9.8701C12.2725 9.58048 12.3676 9.26429 12.6576 9.09301C12.8541 8.97706 13.0368 8.97258 13.2497 9.07852ZM15.7112 9.07852C15.8932 9.1691 16.0383 9.3996 16.0383 9.59812C16.0383 9.90391 15.735 10.1983 15.4199 10.1983C15.2291 10.1983 14.9756 10.0427 14.8854 9.8701C14.7339 9.58048 14.829 9.26429 15.1191 9.09301C15.3155 8.97706 15.4982 8.97258 15.7112 9.07852Z" fill="#A7B3C3"/>
</svg>
