<svg width="80" height="39" viewBox="0 0 80 39" fill="none" xmlns="http://www.w3.org/2000/svg">
<g clip-path="url(#clip0_1_1334)">
<path d="M54.4478 15.6538V17.3077H51.5678V26.0792H49.4853V17.3077H46.6201V15.6538H54.4478ZM66.8333 15.7719V26.0792H64.7656V18.8877L62.1219 26.0792H60.3203L57.6766 18.9173V26.0792H55.5941V15.7719H58.1197L61.2507 23.5245L64.3225 15.7719H66.8333ZM75.8825 23.2292C75.8825 23.7608 75.7496 24.253 75.4837 24.7058C75.2179 25.1489 74.824 25.5082 74.3022 25.7838C73.7803 26.0496 73.1453 26.1825 72.3969 26.1825C71.6585 26.1825 70.9988 26.0595 70.4179 25.8134C69.837 25.5574 69.3693 25.1931 69.0148 24.7206C68.6702 24.2481 68.4733 23.6968 68.424 23.0667H70.6394C70.6886 23.49 70.856 23.8444 71.1416 24.1299C71.437 24.4056 71.8259 24.5434 72.3083 24.5434C72.7416 24.5434 73.0714 24.4302 73.2979 24.2038C73.5342 23.9675 73.6523 23.6672 73.6523 23.303C73.6523 22.9781 73.5588 22.7123 73.3717 22.5056C73.1846 22.289 72.9483 22.1167 72.6628 21.9888C72.3773 21.8608 71.9834 21.7131 71.4813 21.5457C70.8314 21.3292 70.2997 21.1175 69.8862 20.9108C69.4726 20.6942 69.1182 20.3841 68.8228 19.9805C68.5373 19.5768 68.3945 19.0502 68.3945 18.4004C68.3945 17.5046 68.7145 16.8007 69.3545 16.2888C70.0043 15.767 70.8609 15.5061 71.9243 15.5061C73.0271 15.5061 73.9034 15.7719 74.5533 16.3035C75.213 16.8351 75.5871 17.5439 75.6757 18.4299H73.4308C73.3717 18.0559 73.2142 17.7507 72.9582 17.5144C72.7022 17.2683 72.3526 17.1452 71.9096 17.1452C71.5256 17.1452 71.2154 17.2486 70.9791 17.4553C70.7428 17.6522 70.6246 17.9426 70.6246 18.3266C70.6246 18.6318 70.7133 18.8877 70.8905 19.0945C71.0776 19.2913 71.3089 19.4538 71.5846 19.5818C71.8702 19.7097 72.2542 19.8525 72.7366 20.01C73.4062 20.2463 73.9477 20.4678 74.3613 20.6745C74.7846 20.8812 75.144 21.1913 75.4394 21.6048C75.7348 22.0183 75.8825 22.5597 75.8825 23.2292Z" fill="black"/>
<path d="M30.2961 34.7395C31.0493 34.1908 31.7616 33.5882 32.4274 32.9363C32.4741 32.8899 32.5205 32.846 32.5671 32.7997C34.6301 30.739 36.1934 28.2333 37.137 25.4746H12.1116C11.2727 25.4747 10.442 25.3095 9.667 24.9886C8.89199 24.6676 8.1878 24.1972 7.5947 23.6041C7.00134 23.011 6.53082 22.3069 6.2099 21.532C5.889 20.7571 5.72372 19.9266 5.72372 19.0879V15.2806H2.41729C1.25569 15.2806 0.235049 16.0916 0.110821 17.2463C0.0370602 17.932 9.9802e-08 18.6215 6.96481e-08 19.3121C-0.000300565 22.8307 0.972666 26.2808 2.81144 29.2809C4.6502 32.281 7.28343 34.7139 10.4192 36.3107C13.5551 37.9075 17.0717 38.6058 20.5799 38.3286C24.0881 38.0513 27.4513 36.8091 30.2973 34.7395H30.2961Z" fill="#408AFB"/>
<path d="M38.3703 19.3113C38.37 15.7929 37.3964 12.3431 35.5572 9.34337C33.7181 6.34369 31.0849 3.911 27.9491 2.31435C24.8133 0.717703 21.2968 0.0192892 17.7888 0.296348C14.2806 0.573406 10.9175 1.81515 8.07129 3.88425C7.31836 4.43419 6.60612 5.03774 5.94019 5.6902C5.89503 5.73505 5.84987 5.77899 5.8017 5.82384C3.73896 7.88404 2.17535 10.389 1.23067 13.1467H26.2585C27.9525 13.1474 29.577 13.8208 30.7746 15.0187C31.9723 16.2167 32.6451 17.8412 32.6451 19.535V23.3422H35.9533C37.1141 23.3422 38.1343 22.5324 38.259 21.3785C38.3331 20.6925 38.3703 20.0024 38.3703 19.3113Z" fill="#0064AF"/>
</g>
<defs>
<clipPath id="clip0_1_1334">
<rect width="80" height="38.7629" fill="white" transform="translate(0 0.236328)"/>
</clipPath>
</defs>
</svg>
